<svg xmlns="http://www.w3.org/2000/svg" viewBox="0 0 240 240" width="240" height="240" role="img" aria-label="Logo Sekolah">
  <defs>
    <linearGradient id="g1" x1="0" y1="0" x2="1" y2="1">
      <stop offset="0%" stop-color="#1d4ed8"/>
      <stop offset="100%" stop-color="#0f172a"/>
    </linearGradient>
  </defs>
  <circle cx="120" cy="120" r="110" fill="#ffffff" stroke="url(#g1)" stroke-width="10"/>
  <circle cx="120" cy="120" r="86" fill="#eff6ff" stroke="#93c5fd" stroke-width="4"/>
  <path d="M120 52 L168 76 V124 C168 156 147 181 120 190 C93 181 72 156 72 124 V76 Z" fill="url(#g1)"/>
  <path d="M120 70 L151 85 V123 C151 146 136 165 120 172 C104 165 89 146 89 123 V85 Z" fill="#f8fafc" opacity="0.9"/>
  <path d="M86 142 H154" stroke="#f8fafc" stroke-width="8" stroke-linecap="round"/>
  <path d="M120 85 L120 150" stroke="#0f172a" stroke-width="8" stroke-linecap="round"/>
  <circle cx="120" cy="112" r="16" fill="#f59e0b" stroke="#ffffff" stroke-width="4"/>
  <text x="120" y="214" text-anchor="middle" font-family="Arial, sans-serif" font-size="18" font-weight="700" fill="#0f172a">RAPOR</text>
</svg>
